<svg width="1080" height="884" viewBox="0 0 1080 884" fill="none" xmlns="http://www.w3.org/2000/svg">
<path d="M1080 0H0V953H1080V0Z" fill="#F4F4F4"/>
<path d="M582.345 109.096C487.888 97.1793 392.003 97.0192 297.495 108.62C206.233 119.659 107.356 142.16 0 180.465V653.974H1080V242.649C1052.54 236.454 1025.47 228.987 998.894 220.279C887.434 184.304 751.844 130.3 582.345 109.096Z" fill="#5CCFFE"/>
<path d="M595.571 217.107C578.807 214.845 577.12 192.811 534.077 192.811C492.358 192.811 485.555 228.407 485.555 228.407H721.225C695.004 228.407 680.854 217.107 656.356 211.458C631.858 205.81 612.34 219.366 595.571 217.107Z" fill="white"/>
<path d="M560.01 142.499C541.131 142.499 540.393 153.369 533.039 154.487C525.685 155.604 517.125 148.91 506.379 151.699C495.633 154.488 489.428 160.063 477.926 160.063H581.291C581.291 160.063 578.309 142.499 560.01 142.499Z" fill="white"/>
<path fill-rule="evenodd" clip-rule="evenodd" d="M919 428.292L935.564 428.372V419.846L919 420.205V428.292Z" fill="#4497B7"/>
<path fill-rule="evenodd" clip-rule="evenodd" d="M951.947 428.45L974.717 428.558V419L951.947 419.492V428.45Z" fill="#4497B7"/>
<path fill-rule="evenodd" clip-rule="evenodd" d="M919 442.417L929.775 442.965V434.595L919 434.33V442.417Z" fill="#4497B7"/>
<path fill-rule="evenodd" clip-rule="evenodd" d="M919 456.578L953.9 459.975V450.963L919 448.493V456.578Z" fill="#4497B7"/>
<path fill-rule="evenodd" clip-rule="evenodd" d="M934.135 443.186L956.817 444.344V435.261L934.135 434.702V443.186Z" fill="#4497B7"/>
<path fill-rule="evenodd" clip-rule="evenodd" d="M960.748 444.547L974.717 445.261V435.7L960.748 435.356V444.547Z" fill="#4497B7"/>
<path fill-rule="evenodd" clip-rule="evenodd" d="M979.75 445.519L998.992 446.498V436.298L979.75 435.825V445.519Z" fill="#4497B7"/>
<path fill-rule="evenodd" clip-rule="evenodd" d="M957.766 460.351L982.018 462.711V452.959L957.766 451.238V460.351Z" fill="#4497B7"/>
</svg>
